<svg xmlns="http://www.w3.org/2000/svg" version="1.1" xmlns:xlink="http://www.w3.org/1999/xlink" xmlns:svgjs="http://svgjs.dev/svgjs" viewBox="0 0 1920 1080"><rect width="1920" height="1080" fill="#474973"></rect><g transform="matrix(0.5750000000000001,0.9959292143521044,-0.9959292143521044,0.5750000000000001,942.0249640550375,-717.7416055327126)"><path d="M0,-1080C2.374744316499317,-967.480287715541,17.191270612574392,-625.526997827151,14.248465898995903,-404.88172629324566C11.305661185417412,-184.23645475934032,-19.912206395485423,30.191310541509978,-17.656828281470943,243.87162920343206C-15.401450167456462,457.5519478653541,24.863162669041348,669.833734086222,27.78073458308279,877.2001856782867C30.698306497124232,1084.5666372703515,4.478725633291501,1274.2703697022016,-0.15139679722229715,1488.0703387558206C-4.781519227736095,1701.8703078094395,-0.025232799537049527,2048.01172312597,0,2160L 1920 2160 L 1920 -1080 Z" fill="url(&quot;#SvgjsLinearGradient1182&quot;)"></path><path d="M320,-1080C323.56011028867516,-986.9036261957272,342.5097219043274,-699.4139853009026,341.3606617320509,-521.4217571743633C340.2116015597744,-343.42952904782396,313.5470507984332,-187.27500194379346,313.10563896634085,-12.046631240764338C312.6642271342485,163.1817394622648,335.28628424540943,343.9768396179684,338.71219073949675,529.9484670438114C342.13809723358406,715.9200944696545,333.3593465215011,919.2188013730333,333.66107793086456,1103.7831333142938C333.96280934022803,1288.3474652555542,342.7994255174884,1461.2983142437563,340.5225791956776,1637.334458691374C338.24573287386687,1813.3706031389918,323.4204298659463,2072.8890764485623,320,2160L 1920 2160 L 1920 -1080 Z" fill="url(&quot;#SvgjsLinearGradient1183&quot;)"></path><path d="M640,-1080C636.2854555037559,-967.301737908044,615.1250073614416,-619.8618488202253,617.7127330225356,-403.81042744826345C620.3004586836297,-187.75900607630163,647.5853756150203,1.9968384620391078,655.5263539665646,216.30852823177082C663.4673323181088,430.6202180015025,663.0741427695082,662.9900175806418,665.358603131801,882.0597111701267C667.6430634940939,1101.1294047596116,673.4595499956217,1317.7366416303678,669.2331161403216,1530.72668976868C665.0066822850215,1743.7167379069922,644.8721860233869,2055.1211149614464,640,2160L 1920 2160 L 1920 -1080 Z" fill="url(&quot;#SvgjsLinearGradient1184&quot;)"></path><path d="M960,-1080C960.8380568536065,-1007.8500335667807,967.899932775264,-777.1213631449904,965.0283411216394,-647.1002014006837C962.1567494680148,-517.079039656377,939.3589736928105,-427.1867331964873,942.7704500782522,-299.8730295341597C946.1819264636939,-172.55932587183207,980.8252704185461,-26.21838373551016,985.4971994342898,116.78202057328217C990.1691284500334,259.7824248820745,977.1985570508832,418.06981152230213,970.8020241727145,558.1293963185942C964.4054912945458,698.1889811148862,946.7732609904828,828.1797556905578,947.1180021652774,957.1395293510346C947.462743340072,1086.0993030115114,966.8750495298864,1200.3068840165997,972.8704712214824,1331.8880382814548C978.8658929130784,1463.4691925463098,985.2356108517669,1608.6077946537405,983.0905323148531,1746.6264549401646C980.9454537779394,1884.6451152265888,963.8484220524755,2091.104409156694,960,2160L 1920 2160 L 1920 -1080 Z" fill="url(&quot;#SvgjsLinearGradient1185&quot;)"></path><path d="M1280,-1080C1275.9963411005238,-1006.8805711506891,1259.1299686064858,-792.7073660344257,1255.9780466031418,-641.2834269041347C1252.8261245997978,-489.8594877738436,1252.5091072177931,-326.69403509102466,1261.0884679799353,-171.45636521825355C1269.6678287420775,-16.218695345482445,1299.8473209435056,130.06633206576666,1307.4542111759954,290.14259233249203C1315.0611014084852,450.21885259921737,1315.8760666914493,630.8675702861103,1306.7298093748748,789.0011963820987C1297.5835520583003,947.134822478087,1257.9809837231662,1090.4724982317293,1252.5766672765478,1238.944348908422C1247.1723508299294,1387.4161995851146,1269.7333552412556,1526.3230252603253,1274.3039106951642,1679.832300442255C1278.8744661490728,1833.3415756241848,1279.0506517825274,2079.9720500737094,1280,2160L 1920 2160 L 1920 -1080 Z" fill="url(&quot;#SvgjsLinearGradient1186&quot;)"></path><path d="M1600,-1080C1603.724729880376,-989.9750778984035,1622.7081872970032,-721.545863531791,1622.348379282256,-539.8504673904206C1621.9885712675089,-358.15507124905014,1600.5424434815925,-170.30034945839404,1597.8411519115175,10.172376848222768C1595.1398603414425,190.64510315483957,1602.342983522953,360.7884563198817,1606.140629861806,542.9858904492803C1609.938276200659,725.1833245786789,1618.621144484496,923.6002318551909,1620.6270299446353,1103.3569816246147C1622.6329154047746,1283.1137313940385,1621.6137809467482,1445.419219336592,1618.1759426226422,1621.526389065823C1614.7381042985362,1797.633558795054,1603.0293237704404,2070.254398177637,1600,2160L 1920 2160 L 1920 -1080 Z" fill="url(&quot;#SvgjsLinearGradient1187&quot;)"></path></g><defs><linearGradient x1="0.1" y1="0" x2="0" y2="1" id="SvgjsLinearGradient1182"><stop stop-color="#474973" offset="0"></stop><stop stop-color="#475073" offset="0"></stop></linearGradient><linearGradient x1="0.1" y1="0" x2="0" y2="1" id="SvgjsLinearGradient1183"><stop stop-color="#3d3f63" offset="0"></stop><stop stop-color="#3d4563" offset="0.16666666666666666"></stop></linearGradient><linearGradient x1="0.1" y1="0" x2="0" y2="1" id="SvgjsLinearGradient1184"><stop stop-color="#333553" offset="0"></stop><stop stop-color="#333a53" offset="0.3333333333333333"></stop></linearGradient><linearGradient x1="0.1" y1="0" x2="0" y2="1" id="SvgjsLinearGradient1185"><stop stop-color="#2a2b43" offset="0"></stop><stop stop-color="#2a2f43" offset="0.5"></stop></linearGradient><linearGradient x1="0.1" y1="0" x2="0" y2="1" id="SvgjsLinearGradient1186"><stop stop-color="#202133" offset="0"></stop><stop stop-color="#202433" offset="0.6666666666666666"></stop></linearGradient><linearGradient x1="0.1" y1="0" x2="0" y2="1" id="SvgjsLinearGradient1187"><stop stop-color="#161623" offset="0"></stop><stop stop-color="#161823" offset="0.8333333333333334"></stop></linearGradient></defs></svg>